<mxfile host="65bd71144e" modified="2021-02-22T14:53:45.445Z" agent="5.0 (X11; Linux x86_64) AppleWebKit/537.36 (KHTML, like Gecko) Code/1.53.2 Chrome/87.0.4280.141 Electron/11.2.1 Safari/537.36" etag="hL9WyuZoAPs6ps_YTgke" version="14.2.4" type="embed">
    <diagram id="tbSszpNPi6aQqwqq7qHc" name="Page-1">
        <mxGraphModel dx="222" dy="85" grid="1" gridSize="10" guides="1" tooltips="1" connect="1" arrows="1" fold="1" page="1" pageScale="1" pageWidth="850" pageHeight="1100" math="0" shadow="0">
            <root>
                <mxCell id="0"/>
                <mxCell id="1" parent="0"/>
                <mxCell id="i9nTB-gmrB2XtGuJBblc-6" style="edgeStyle=orthogonalEdgeStyle;rounded=0;orthogonalLoop=1;jettySize=auto;html=1;entryX=0.053;entryY=1.05;entryDx=0;entryDy=0;entryPerimeter=0;" parent="1" source="i9nTB-gmrB2XtGuJBblc-3" target="i9nTB-gmrB2XtGuJBblc-4" edge="1">
                    <mxGeometry relative="1" as="geometry"/>
                </mxCell>
                <mxCell id="i9nTB-gmrB2XtGuJBblc-3" value="&lt;div align=&quot;left&quot;&gt;&lt;font style=&quot;font-size: 16px&quot;&gt;FQDN : DC01.ad.tfljpp.test&lt;/font&gt;&lt;/div&gt;&lt;div align=&quot;left&quot;&gt;&lt;font style=&quot;font-size: 16px&quot;&gt;IP&amp;nbsp;&amp;nbsp;&amp;nbsp;&amp;nbsp;&amp;nbsp;&amp;nbsp;&amp;nbsp; : 10.11.12.10&lt;br&gt;&lt;/font&gt;&lt;/div&gt;" style="aspect=fixed;pointerEvents=1;shadow=0;dashed=0;html=1;strokeColor=none;labelPosition=center;verticalLabelPosition=bottom;verticalAlign=top;align=left;fillColor=#00188D;shape=mxgraph.mscae.enterprise.ad_fs" parent="1" vertex="1">
                    <mxGeometry x="40" y="400" width="80" height="100" as="geometry"/>
                </mxCell>
                <mxCell id="i9nTB-gmrB2XtGuJBblc-4" value="&lt;font style=&quot;font-size: 36px&quot;&gt;10.11.12.0/24&lt;/font&gt;" style="rounded=0;whiteSpace=wrap;html=1;" parent="1" vertex="1">
                    <mxGeometry x="40" y="280" width="760" height="60" as="geometry"/>
                </mxCell>
                <mxCell id="3" value="&lt;font style=&quot;font-size: 22px&quot;&gt;IP Range&amp;nbsp; &amp;nbsp; &amp;nbsp; &amp;nbsp; &amp;nbsp; &amp;nbsp; &amp;nbsp; &amp;nbsp;: 10.11.12.0/24&lt;br&gt;Internal DNS zone : ad.tfljpp.test&lt;br&gt;&lt;span&gt;sAMAccountName : TFLJPP\&lt;br&gt;&lt;/span&gt;UPN&amp;nbsp; &amp;nbsp; &amp;nbsp; &amp;nbsp; &amp;nbsp; &amp;nbsp; &amp;nbsp; &amp;nbsp; &amp;nbsp; &amp;nbsp; &amp;nbsp; &amp;nbsp;: @ad.tfljpp.test&lt;br&gt;Naming Scheme&amp;nbsp; &amp;nbsp; : Firstletter.LastName (J.Perdok)&lt;br&gt;&lt;/font&gt;" style="text;html=1;align=left;verticalAlign=middle;resizable=0;points=[];autosize=1;" parent="1" vertex="1">
                    <mxGeometry x="40" y="160" width="520" height="90" as="geometry"/>
                </mxCell>
                <mxCell id="7" style="edgeStyle=orthogonalEdgeStyle;rounded=0;orthogonalLoop=1;jettySize=auto;html=1;entryX=0.881;entryY=-0.051;entryDx=0;entryDy=0;entryPerimeter=0;" parent="1" source="6" target="i9nTB-gmrB2XtGuJBblc-4" edge="1">
                    <mxGeometry relative="1" as="geometry"/>
                </mxCell>
                <mxCell id="6" value="&lt;font style=&quot;font-size: 24px&quot;&gt;Virutalbox DHCP&lt;/font&gt;" style="text;html=1;align=center;verticalAlign=middle;resizable=0;points=[];autosize=1;" parent="1" vertex="1">
                    <mxGeometry x="610" y="210" width="200" height="20" as="geometry"/>
                </mxCell>
                <mxCell id="9" style="edgeStyle=orthogonalEdgeStyle;rounded=0;orthogonalLoop=1;jettySize=auto;html=1;entryX=0.872;entryY=1.049;entryDx=0;entryDy=0;entryPerimeter=0;" edge="1" parent="1" source="8" target="i9nTB-gmrB2XtGuJBblc-4">
                    <mxGeometry relative="1" as="geometry">
                        <Array as="points">
                            <mxPoint x="703" y="380"/>
                        </Array>
                    </mxGeometry>
                </mxCell>
                <mxCell id="8" value="&lt;div&gt;&lt;font style=&quot;font-size: 16px&quot;&gt;FQDN : PC01.ad.tfljpp.test&lt;/font&gt;&lt;/div&gt;&lt;div&gt;&lt;font style=&quot;font-size: 16px&quot;&gt;IP&amp;nbsp;&amp;nbsp;&amp;nbsp;&amp;nbsp;&amp;nbsp;&amp;nbsp;&amp;nbsp; : 10.11.12.100&lt;/font&gt;&lt;/div&gt;" style="aspect=fixed;pointerEvents=1;shadow=0;dashed=0;html=1;strokeColor=none;labelPosition=center;verticalLabelPosition=bottom;verticalAlign=top;align=left;fillColor=#00188D;shape=mxgraph.mscae.enterprise.workstation_client" parent="1" vertex="1">
                    <mxGeometry x="650" y="400" width="100" height="100" as="geometry"/>
                </mxCell>
                <mxCell id="15" style="edgeStyle=orthogonalEdgeStyle;rounded=0;orthogonalLoop=1;jettySize=auto;html=1;entryX=0.4;entryY=1.006;entryDx=0;entryDy=0;entryPerimeter=0;" edge="1" parent="1" source="12" target="i9nTB-gmrB2XtGuJBblc-4">
                    <mxGeometry relative="1" as="geometry"/>
                </mxCell>
                <mxCell id="12" value="&lt;div&gt;&lt;font style=&quot;font-size: 16px&quot;&gt;FQDN : FS01.ad.tfljpp.test&lt;/font&gt;&lt;/div&gt;&lt;div&gt;&lt;font style=&quot;font-size: 16px&quot;&gt;IP&amp;nbsp;&amp;nbsp;&amp;nbsp;&amp;nbsp;&amp;nbsp;&amp;nbsp;&amp;nbsp; : 10.11.12.50&lt;/font&gt;&lt;/div&gt;" style="aspect=fixed;pointerEvents=1;shadow=0;dashed=0;html=1;strokeColor=none;labelPosition=center;verticalLabelPosition=bottom;verticalAlign=top;align=left;fillColor=#00188D;shape=mxgraph.mscae.enterprise.server_generic" vertex="1" parent="1">
                    <mxGeometry x="320" y="400" width="48" height="100" as="geometry"/>
                </mxCell>
            </root>
        </mxGraphModel>
    </diagram>
</mxfile>